<?xml version="1.0" standalone="no"?>
<!DOCTYPE svg PUBLIC "-//W3C//DTD SVG 20010904//EN"
 "http://www.w3.org/TR/2001/REC-SVG-20010904/DTD/svg10.dtd">
<svg version="1.0" xmlns="http://www.w3.org/2000/svg"
 width="260.000000pt" height="260.000000pt" viewBox="0 0 260.000000 260.000000"
 preserveAspectRatio="xMidYMid meet">
<metadata>
Created by potrace 1.11, written by Peter Selinger 2001-2013
</metadata>
<g transform="translate(0.000000,260.000000) scale(0.100000,-0.100000)"
fill="#000000" stroke="none">
<path d="M1887 2429 c-78 -23 -115 -42 -175 -86 -88 -67 -155 -162 -193 -278
-19 -58 -16 -248 5 -304 9 -25 13 -48 9 -52 -5 -5 -55 -29 -113 -54 -58 -26
-134 -60 -169 -76 -35 -17 -82 -37 -105 -46 -22 -9 -45 -19 -51 -23 -5 -4 -75
-36 -155 -70 -80 -34 -149 -66 -155 -70 -5 -3 -35 -17 -65 -30 -54 -22 -105
-44 -185 -81 -22 -10 -137 -61 -255 -114 -118 -53 -218 -101 -222 -108 -9 -14
-4 -19 42 -45 19 -11 148 -84 286 -164 138 -79 257 -142 264 -140 7 3 20 12
29 21 9 9 97 93 196 186 98 94 231 220 294 281 64 61 158 151 210 200 51 49
122 117 158 152 35 34 68 62 72 62 17 0 43 -39 35 -52 -4 -7 -73 -80 -153
-162 -81 -82 -173 -177 -206 -211 -33 -34 -122 -125 -197 -203 -111 -114 -136
-145 -133 -164 4 -19 42 -141 63 -198 3 -8 6 -17 7 -20 7 -29 128 -399 134
-409 19 -36 45 -10 83 84 9 22 34 78 56 125 68 145 112 241 158 343 24 54 48
105 53 115 5 9 19 40 32 67 50 113 69 155 118 258 28 59 51 110 51 112 0 1 18
41 40 88 l41 86 44 -19 c89 -38 200 -47 320 -24 17 3 64 21 105 41 139 67 257
217 288 365 15 74 6 215 -17 277 -46 123 -141 236 -247 295 -112 62 -278 81
-397 45z m248 -263 c133 -60 196 -204 146 -337 -71 -186 -306 -237 -444 -95
-49 50 -68 93 -74 167 -18 202 186 347 372 265z"/>
</g>
</svg>
